<?xml version="1.0" standalone="no"?>
<!DOCTYPE svg PUBLIC "-//W3C//DTD SVG 20010904//EN"
 "http://www.w3.org/TR/2001/REC-SVG-20010904/DTD/svg10.dtd">
<svg version="1.0" xmlns="http://www.w3.org/2000/svg"
 width="300.000000pt" height="329.000000pt" viewBox="0 0 300.000000 329.000000"
 preserveAspectRatio="xMidYMid meet">
<metadata>
Created by potrace 1.10, written by Peter Selinger 2001-2011
</metadata>
<g transform="translate(0.000000,329.000000) scale(0.100000,-0.100000)"
fill="#000000" stroke="none">
<path d="M1376 3268 c5 -8 0 -9 -16 -5 -13 3 -30 1 -38 -5 -8 -7 -24 -14 -35
-15 -12 -2 -23 -8 -25 -13 -4 -12 -28 -13 -35 -2 -2 4 -2 1 -1 -5 2 -7 -3 -13
-10 -13 -7 0 -25 -11 -40 -25 -14 -13 -26 -21 -27 -17 0 4 -5 -4 -10 -17 -6
-16 -14 -21 -25 -17 -14 5 -15 4 -5 -8 9 -11 8 -15 -4 -20 -8 -3 -15 -12 -15
-21 0 -8 -5 -15 -11 -15 -5 0 -7 -4 -4 -10 3 -5 1 -10 -5 -10 -6 0 -8 -4 -5
-10 3 -5 1 -10 -5 -10 -6 0 -8 -4 -5 -10 3 -5 1 -10 -6 -10 -7 0 -10 -3 -6 -6
3 -3 0 -25 -7 -47 -6 -23 -12 -72 -11 -110 0 -37 -4 -67 -8 -67 -5 0 -5 -6 0
-12 4 -7 9 -31 9 -53 1 -22 13 -76 28 -120 14 -44 26 -86 26 -93 0 -8 9 -26
20 -42 11 -15 17 -30 13 -34 -3 -3 -1 -6 5 -6 5 0 12 5 14 12 2 6 21 11 41 10
27 -1 35 2 31 13 -5 13 32 42 48 37 4 -1 5 5 2 13 -5 11 1 15 21 15 23 0 26 2
15 15 -7 8 -13 42 -14 74 -1 41 -4 56 -12 50 -7 -6 -10 2 -9 26 0 19 -2 35 -6
35 -3 0 -6 15 -6 33 1 18 -3 39 -8 47 -5 8 -5 15 1 17 6 2 9 28 8 58 -2 49 6
69 19 48 2 -5 2 -2 1 5 -5 17 18 52 33 52 7 0 13 6 13 14 0 14 27 29 41 23 3
-1 14 4 23 12 15 13 19 13 27 0 7 -11 9 -11 9 -1 0 26 84 -30 101 -68 26 -55
32 -116 13 -134 -8 -9 -11 -16 -5 -16 12 0 7 -30 -9 -60 -8 -15 -18 -20 -31
-17 -10 3 -17 1 -13 -4 3 -5 12 -9 21 -9 11 0 13 -3 5 -12 -6 -7 -12 -17 -13
-23 -2 -5 -9 -9 -16 -7 -8 2 -10 -3 -7 -13 6 -13 -6 -20 -28 -16 -5 0 -8 -3
-8 -9 0 -5 6 -10 13 -10 7 -1 4 -7 -7 -15 -10 -8 -23 -12 -27 -9 -5 3 -6 -1
-3 -9 3 -9 -4 -22 -18 -31 -26 -19 -42 -21 -32 -4 4 7 3 8 -4 4 -6 -4 -9 -13
-6 -21 3 -8 -6 -21 -23 -31 -15 -10 -37 -26 -48 -36 -46 -42 -83 -67 -88 -61
-4 3 -9 -2 -13 -11 -3 -9 -17 -16 -31 -16 -13 0 -22 -4 -18 -9 3 -6 -7 -21
-22 -35 -20 -19 -29 -22 -36 -13 -6 8 -7 6 -3 -5 3 -11 -2 -22 -14 -28 -11 -6
-20 -8 -20 -5 0 3 -14 -10 -31 -30 -17 -19 -36 -32 -42 -28 -5 3 -7 2 -4 -4 6
-10 -26 -43 -43 -43 -6 0 -10 -5 -10 -11 0 -5 -4 -7 -10 -4 -5 3 -15 -5 -22
-19 -6 -14 -16 -26 -21 -26 -12 0 -86 -80 -87 -93 0 -5 -4 -6 -9 -2 -5 3 -12
-4 -16 -15 -4 -11 -11 -18 -16 -15 -5 3 -6 -1 -3 -9 3 -9 1 -16 -5 -16 -6 0
-11 -7 -11 -15 0 -8 -5 -15 -11 -15 -5 0 -7 5 -3 12 4 7 3 8 -4 4 -9 -5 -9
-13 -2 -27 7 -13 7 -19 0 -19 -5 0 -10 -7 -10 -15 0 -8 -5 -15 -11 -15 -6 0
-8 -7 -5 -17 4 -9 2 -19 -4 -23 -6 -4 -14 -22 -17 -41 -3 -19 -8 -36 -11 -39
-11 -8 -16 -32 -14 -67 1 -18 -2 -35 -8 -38 -5 -3 -7 -11 -5 -18 2 -7 6 -39 9
-72 24 -282 213 -514 501 -616 27 -9 53 -15 57 -13 5 3 8 1 8 -4 0 -5 36 -10
79 -11 70 -2 82 1 107 22 28 24 28 25 16 88 -6 34 -17 68 -24 75 -15 14 -130
55 -122 43 9 -15 -95 20 -154 51 -41 21 -59 37 -55 46 3 8 -1 14 -8 14 -30 0
-98 75 -118 130 -12 30 -26 63 -31 72 -13 23 -13 41 1 32 6 -3 3 5 -6 20 -17
26 -17 27 5 46 13 11 19 20 14 20 -6 0 -15 -5 -21 -11 -8 -8 -13 -8 -17 0 -4
6 -3 11 2 11 12 0 23 38 12 45 -11 7 -9 55 2 55 5 0 6 5 3 10 -4 6 -2 17 5 25
6 7 10 19 9 27 -4 21 20 70 31 63 6 -3 7 1 4 9 -3 9 -1 16 5 16 6 0 8 7 5 15
-4 11 -2 13 9 9 10 -4 15 0 14 13 -1 10 4 17 11 16 6 -2 12 6 12 18 0 14 5 19
14 16 10 -4 13 -1 9 9 -3 9 2 14 16 14 12 0 20 3 20 8 -4 22 3 34 15 29 10 -4
13 -1 9 9 -3 7 -1 14 4 14 4 0 22 12 38 28 16 15 33 26 38 24 5 -1 6 2 3 7 -8
12 32 41 57 41 15 0 16 -3 7 -20 -8 -15 -8 -20 1 -20 7 0 10 -3 6 -6 -3 -4 1
-20 9 -37 16 -29 15 -31 -7 -49 -13 -10 -32 -16 -41 -14 -11 2 -15 -1 -11 -10
3 -8 -1 -14 -9 -14 -7 0 -20 -9 -28 -20 -8 -11 -20 -20 -27 -20 -6 0 -19 -10
-27 -22 -9 -12 -26 -28 -38 -36 -19 -11 -20 -12 -3 -7 16 5 15 1 -7 -20 -25
-23 -33 -38 -25 -49 1 -2 -7 -13 -17 -25 -11 -12 -16 -21 -12 -21 4 0 2 -10
-5 -21 -13 -24 -23 -89 -22 -135 3 -88 117 -245 203 -282 81 -35 103 -35 127
1 30 44 21 76 -38 137 -27 28 -49 56 -49 63 0 7 -3 23 -7 36 -4 14 -2 22 3 18
6 -3 16 -2 23 3 10 6 9 9 -7 14 -28 9 -32 36 -10 67 9 14 15 29 12 32 -3 3 1
16 10 29 9 12 16 18 16 13 0 -4 11 2 24 14 l25 23 6 -35 c4 -19 8 -54 8 -76 1
-23 5 -41 10 -41 4 0 7 -9 7 -21 0 -11 4 -28 9 -38 5 -9 14 -55 20 -101 5 -47
19 -125 29 -175 38 -177 43 -202 62 -320 11 -65 27 -146 35 -180 21 -86 15
-243 -9 -261 -10 -7 -15 -17 -12 -22 7 -11 -49 -69 -75 -77 -10 -4 -19 -10
-19 -14 0 -4 -8 -9 -17 -10 -32 -5 -115 -2 -121 3 -7 8 33 46 48 46 5 0 10 5
10 10 0 6 7 10 16 10 8 0 12 5 9 10 -3 6 1 13 9 16 9 3 13 10 10 15 -3 5 1 9
10 9 10 0 13 8 10 30 -4 25 -2 29 13 24 11 -4 14 -3 7 3 -6 4 -12 27 -13 51
-2 62 -4 72 -12 72 -4 0 -10 7 -13 16 -4 10 -2 13 7 8 6 -4 2 4 -11 18 -12 13
-19 28 -15 33 5 4 2 5 -4 1 -7 -4 -13 -3 -13 3 0 14 -97 61 -147 70 -24 5 -40
5 -37 0 3 -5 -4 -9 -15 -9 -12 0 -21 -4 -21 -10 0 -5 -9 -10 -20 -10 -11 0
-20 -4 -20 -10 0 -5 -12 -10 -27 -10 -20 0 -24 -3 -14 -9 11 -7 10 -10 -5 -15
-19 -6 -64 -67 -64 -85 0 -6 -8 -15 -17 -20 -11 -6 -13 -11 -5 -11 8 0 10 -5
5 -12 -31 -50 -20 -175 22 -258 97 -190 406 -263 580 -138 22 16 44 36 48 44
4 8 15 14 23 14 8 0 13 4 9 9 -3 5 4 12 15 16 11 4 18 11 15 16 -4 5 -2 9 3 9
9 0 25 37 23 53 -1 4 4 7 10 7 5 0 7 5 4 10 -3 6 -1 10 4 10 6 0 11 7 11 15 0
8 5 15 11 15 5 0 7 4 4 10 -3 5 -1 29 6 52 7 24 12 51 11 60 0 9 7 19 16 21
16 4 16 5 0 6 -13 1 -17 9 -16 36 1 19 5 35 10 35 5 0 4 9 -2 20 -6 11 -12 34
-14 52 -2 18 -7 41 -11 51 -4 9 -5 28 -3 42 3 13 2 22 -2 20 -7 -4 -18 56 -20
108 -1 9 -4 17 -8 17 -4 0 -8 8 -8 18 0 9 -4 33 -8 52 -4 22 -4 30 2 22 6 -8
26 -12 56 -11 45 3 59 10 117 64 9 8 21 15 27 15 7 0 12 4 12 10 0 5 6 7 14 4
8 -3 17 -1 21 5 3 7 0 8 -9 5 -24 -9 -20 1 15 38 32 35 65 88 61 101 -1 4 5
10 13 13 8 4 15 17 15 30 0 13 4 24 10 24 5 0 7 7 4 15 -4 8 -1 15 6 15 9 0
11 11 7 35 -4 24 -1 41 12 56 14 18 18 19 18 6 0 -10 -4 -17 -9 -17 -5 0 -6
-6 -1 -12 12 -21 13 -41 0 -57 -7 -9 -7 -12 -1 -8 12 7 13 -157 1 -169 -3 -4
-2 -14 3 -24 5 -10 6 -20 3 -24 -3 -3 -2 -6 4 -6 6 0 16 -20 22 -44 14 -56 14
-63 0 -49 -13 13 -17 10 -73 -42 -18 -16 -36 -38 -39 -47 -4 -10 -14 -18 -24
-18 -15 0 -15 -2 -4 -9 11 -7 12 -15 4 -33 -12 -27 0 -87 24 -124 20 -32 83
-64 123 -64 42 0 110 22 110 36 0 7 12 19 26 29 21 13 24 19 13 26 -11 7 -11
9 3 9 11 0 15 5 12 15 -4 8 -2 15 3 15 5 0 7 17 5 38 -2 20 -5 48 -6 62 0 14
-10 30 -21 36 -11 5 -19 17 -17 26 3 18 -44 40 -89 42 -16 1 -29 3 -29 6 0 3
-4 30 -9 61 -5 31 -11 129 -12 218 -1 89 -6 164 -11 167 -4 3 -8 0 -8 -5 0 -6
-4 -11 -8 -11 -5 0 -9 14 -10 32 -1 23 2 28 8 18 14 -22 12 4 -2 35 -9 21 -9
28 0 34 9 5 5 17 -13 41 -23 31 -25 58 -4 45 5 -4 9 -1 9 4 0 6 -6 11 -14 11
-7 0 -19 7 -26 15 -9 10 -9 15 -1 15 6 0 2 9 -9 20 -18 18 -22 27 -19 46 0 4
-5 11 -13 15 -11 7 -10 11 2 20 13 9 13 10 -1 6 -16 -5 -52 27 -42 37 4 3 2 6
-3 6 -10 0 -54 32 -85 62 -9 9 -20 14 -23 11 -3 -3 -11 -2 -18 3 -7 6 -31 16
-53 23 -94 32 -92 31 -71 47 11 8 16 14 11 14 -5 0 -16 -7 -26 -16 -14 -13
-22 -13 -39 -4 -12 7 -33 10 -46 7 -18 -3 -22 -1 -14 8 7 8 2 10 -21 7 -23 -3
-28 -7 -18 -14 11 -8 11 -9 -1 -5 -8 2 -27 1 -41 -3 -29 -9 -55 2 -45 18 5 8
15 8 32 2 36 -14 42 -12 17 5 -19 13 -41 75 -35 98 1 4 -3 7 -9 7 -5 0 -7 5
-4 10 3 6 2 10 -3 10 -5 0 -14 10 -21 23 l-11 22 6 -22 c6 -26 -1 -29 -22 -8
-13 12 -12 15 6 25 11 6 25 8 30 5 6 -3 10 -1 10 5 0 6 4 8 10 5 15 -9 52 15
46 30 -8 21 58 87 78 79 12 -5 15 -2 10 10 -4 10 -1 16 8 16 7 0 19 9 26 21 9
13 19 18 30 14 9 -3 13 -3 10 1 -9 9 19 64 33 64 6 0 7 5 4 10 -3 6 -1 10 5
10 6 0 15 11 22 25 6 13 15 22 20 19 5 -3 8 -2 7 3 -4 22 3 42 21 63 23 26 25
34 8 24 -7 -4 -5 2 5 14 11 11 16 26 12 31 -3 6 4 15 16 19 21 8 21 9 3 16
-12 5 -15 9 -7 14 6 4 13 26 15 50 3 23 7 45 11 49 4 3 7 11 7 17 0 6 -4 5 -9
-3 -6 -10 -9 -5 -8 15 1 16 6 32 11 36 6 4 5 13 -3 22 -7 8 -10 20 -6 27 4 6
2 15 -4 19 -7 4 -13 23 -14 43 -1 20 -8 39 -16 42 -7 3 -11 12 -8 20 4 8 -2
16 -14 20 -11 4 -19 12 -18 18 3 27 -2 37 -21 37 -14 0 -18 5 -13 17 4 11 3
14 -5 9 -7 -4 -12 -3 -12 3 0 5 -9 13 -20 16 -11 3 -20 13 -20 21 0 8 -3 14
-7 15 -30 3 -58 11 -69 20 -6 5 -35 12 -63 16 -28 3 -51 10 -51 14 0 5 -5 9
-11 9 -5 0 -7 -5 -3 -12z m147 -73 c110 -55 167 -137 189 -270 9 -54 8 -81 -6
-153 -36 -184 -123 -298 -352 -461 -227 -163 -404 -323 -472 -429 -107 -167
-114 -363 -17 -528 67 -114 221 -214 366 -236 l76 -12 12 -56 c7 -30 15 -61
18 -69 8 -21 -166 -9 -237 17 -213 77 -394 263 -445 457 -20 77 -20 243 0 320
21 80 65 168 119 237 56 71 211 209 341 305 363 267 445 366 452 553 3 74 1
90 -19 124 -30 52 -87 81 -155 80 -73 0 -123 -37 -165 -121 -30 -61 -31 -67
-25 -151 3 -48 15 -120 27 -160 14 -51 17 -78 11 -91 -14 -26 -79 -81 -95 -81
-14 0 -43 83 -68 190 -16 73 -16 274 0 327 42 139 193 249 330 240 41 -3 80
-14 115 -32z m-113 -925 c0 -6 -23 -20 -34 -20 -1 0 -2 8 -2 19 0 12 6 17 18
13 10 -2 18 -8 18 -12z m-57 -137 l15 -38 -31 -8 c-59 -16 -73 -24 -74 -46 -1
-11 2 -21 8 -21 5 0 9 4 9 8 0 5 7 9 15 9 8 0 15 -4 15 -8 0 -11 -49 -23 -57
-15 -8 8 -33 77 -33 93 0 10 89 59 111 62 4 1 14 -16 22 -36z m296 -151 c167
-65 284 -218 298 -391 15 -193 -103 -418 -265 -502 l-50 -27 -17 66 -18 65 29
21 c66 48 95 81 124 140 79 160 48 334 -77 428 -65 49 -125 68 -220 68 -85 0
-117 -11 -214 -76 -107 -71 -143 -153 -119 -269 9 -45 21 -66 65 -114 42 -45
53 -62 48 -80 -5 -19 -11 -22 -32 -18 -86 18 -168 86 -208 173 -27 60 -33 160
-13 233 15 57 85 157 141 201 120 94 387 136 528 82z m-89 -188 c77 -21 134
-70 165 -141 29 -65 38 -164 19 -210 -7 -18 -10 -33 -7 -33 3 0 0 -6 -6 -13
-6 -8 -8 -17 -4 -20 3 -4 1 -7 -5 -7 -6 0 -14 -10 -18 -22 -10 -32 -30 -49
-51 -42 -14 5 -15 4 -4 -4 12 -9 12 -13 2 -26 -8 -9 -23 -16 -34 -16 -11 0
-18 -3 -15 -6 6 -5 -27 -44 -37 -44 -3 0 2 11 11 25 19 29 13 33 -12 8 -17
-17 -18 -17 -11 1 4 11 3 22 -2 25 -6 4 -13 31 -16 61 -4 29 -11 62 -16 72 -7
13 -6 18 3 18 9 0 10 3 2 8 -6 4 -10 19 -10 35 1 15 -1 27 -5 27 -4 0 -6 11
-4 25 1 14 -2 28 -6 31 -5 3 -9 10 -9 15 0 6 4 8 9 5 4 -3 8 5 7 17 -1 12 -7
21 -12 20 -6 -1 -10 10 -10 25 1 15 -4 35 -11 46 -6 10 -9 25 -6 34 4 10 2 13
-5 8 -8 -4 -10 -2 -6 8 8 20 -31 56 -58 56 -13 0 -41 -5 -62 -10 -63 -14 -22
16 44 32 64 16 100 15 180 -8z m-132 -81 c6 -21 34 -164 61 -318 28 -154 71
-376 96 -493 29 -140 45 -239 45 -286 0 -182 -104 -351 -249 -406 -51 -19 -75
-22 -150 -18 -78 4 -99 9 -165 41 -88 44 -137 97 -166 181 -48 134 3 276 117
332 44 22 62 26 100 20 99 -13 158 -84 158 -186 -1 -100 -55 -156 -166 -168
l-61 -7 21 -26 c46 -59 176 -80 262 -42 60 27 115 87 139 151 36 95 30 146
-80 707 -21 110 -42 225 -45 255 -4 30 -18 102 -31 159 -13 57 -22 106 -20
108 4 4 86 26 117 32 3 1 11 -16 17 -36z m676 -693 c36 -13 70 -83 63 -132 -7
-54 -49 -105 -98 -119 -96 -29 -188 76 -150 173 5 13 24 38 41 56 27 26 40 32
76 32 23 0 54 -4 68 -10z"/>
<path d="M2452 2705 c2 -145 0 -175 -11 -175 -26 0 -38 33 -44 120 -3 51 -9
95 -12 99 -10 10 -156 3 -169 -8 -7 -6 -15 -9 -17 -6 -10 9 -84 -42 -87 -60
-4 -20 -3 -20 11 -1 7 10 19 16 25 12 8 -5 10 -1 5 10 -4 12 -3 15 5 10 7 -4
12 -2 12 5 0 7 8 9 21 6 27 -7 51 2 42 17 -3 6 -1 6 8 -1 7 -7 18 -13 24 -13
5 0 4 4 -4 9 -10 6 -1 9 26 8 23 -1 38 -6 35 -11 -3 -5 1 -7 10 -4 20 8 39
-26 38 -70 -1 -20 1 -49 3 -64 2 -15 0 -25 -4 -22 -5 3 -9 0 -9 -5 0 -6 -6
-11 -12 -11 -7 -1 -24 -10 -38 -21 -22 -19 -25 -29 -25 -91 0 -39 5 -72 11
-76 6 -4 15 -18 19 -32 4 -14 16 -31 26 -37 22 -16 21 -79 -1 -75 -9 1 -5 -6
9 -18 13 -11 19 -20 14 -20 -5 0 -9 -33 -8 -74 0 -41 2 -73 5 -71 3 2 5 -45 5
-103 1 -123 13 -159 47 -141 18 10 20 9 14 -7 -6 -16 -5 -16 15 2 12 10 19 13
15 7 -5 -9 -2 -11 8 -7 9 3 16 12 16 20 0 8 8 14 17 14 13 0 14 3 5 12 -15 15
-15 28 -1 28 5 0 8 -4 5 -9 -3 -5 2 -8 12 -7 9 0 16 -5 15 -11 -2 -7 2 -13 9
-13 9 0 9 -3 0 -12 -16 -16 -15 -28 1 -28 7 0 20 -9 30 -20 17 -20 16 -22 -8
-46 -15 -15 -24 -32 -21 -40 3 -8 1 -14 -5 -14 -6 0 -5 -8 2 -21 6 -12 7 -19
1 -15 -10 6 -10 -44 1 -61 8 -12 3 -76 -7 -91 -8 -13 20 -62 44 -76 47 -29
105 3 115 63 3 19 8 38 11 43 3 4 1 8 -3 8 -5 0 -8 32 -8 71 0 39 -3 73 -8 76
-5 3 -3 9 4 14 10 6 10 9 2 9 -7 0 -19 13 -28 30 -14 28 -14 30 8 44 43 29 30
128 -19 140 -32 8 -75 -3 -94 -25 -18 -20 -53 -8 -44 15 3 8 1 17 -5 21 -6 3
-9 0 -5 -9 3 -9 -2 -17 -15 -21 -14 -4 -21 -15 -21 -31 0 -17 -6 -24 -20 -25
-11 -1 -25 -2 -32 -3 -20 -2 -26 56 -32 282 -7 232 -10 218 53 206 32 -7 32
-7 31 -63 -1 -31 -1 -67 -1 -80 1 -24 2 -24 15 -6 8 11 12 24 8 29 -3 5 3 6
13 2 17 -6 18 -5 3 11 -8 10 -14 29 -13 43 1 14 -2 31 -7 38 -6 6 -7 12 -3 12
4 0 2 6 -4 14 -9 10 -9 61 -1 61 1 0 3 9 5 20 2 11 8 21 14 23 5 2 7 14 5 27
-3 20 -1 23 13 18 13 -4 11 0 -6 15 -13 12 -20 22 -15 22 5 0 3 4 -4 9 -7 4
-13 16 -13 27 0 68 4 101 14 113 9 11 9 13 0 8 -7 -5 -14 4 -18 23 -7 32 1 54
16 45 14 -9 11 3 -7 30 -9 13 -12 30 -8 36 4 7 3 9 -4 5 -6 -3 -13 2 -16 11
-3 10 -4 -31 -4 -92z m-28 -185 c83 -31 60 -150 -29 -150 -74 0 -110 80 -60
134 26 28 48 32 89 16z m234 -662 c7 -7 12 -24 12 -38 0 -33 -17 -50 -50 -50
-32 0 -50 17 -50 46 0 40 61 69 88 42z m-4 -180 c3 -13 6 -76 6 -140 l0 -118
-39 0 c-32 0 -40 4 -45 23 -8 30 -8 242 1 250 3 4 21 7 39 7 24 0 33 -5 38
-22z"/>
<path d="M460 2778 c0 -5 -13 -7 -30 -3 -22 5 -32 3 -36 -9 -3 -9 -10 -13 -15
-10 -5 3 -9 0 -9 -7 0 -7 -3 -10 -6 -6 -3 3 -18 -7 -33 -22 -15 -15 -34 -30
-44 -34 -10 -4 -14 -12 -10 -23 3 -9 0 -20 -7 -24 -8 -5 -15 -17 -16 -27 -2
-10 -7 -39 -12 -65 -13 -68 21 -136 97 -191 l56 -42 0 -115 c0 -128 8 -155 57
-192 27 -20 39 -23 63 -17 16 5 35 16 42 25 6 9 16 13 21 10 7 -4 7 73 0 149
0 6 1 15 2 20 5 21 -1 36 -12 29 -7 -4 -8 -3 -4 4 4 6 1 20 -6 32 -12 18 -9
24 27 60 22 21 45 39 51 40 17 0 63 56 70 85 3 14 10 25 14 25 5 0 6 9 3 20
-3 13 0 20 8 20 9 0 10 3 4 8 -5 4 -11 25 -11 47 -2 58 -9 86 -24 95 -7 4 -9
13 -6 19 4 6 0 11 -9 11 -9 0 -14 3 -12 8 3 5 -36 50 -46 52 -28 6 -47 14 -47
21 0 5 -7 6 -15 3 -8 -4 -23 -3 -32 2 -27 11 -73 13 -73 2z m117 -49 c69 -26
115 -97 117 -179 1 -70 -24 -123 -77 -161 -37 -26 -47 -29 -124 -29 -89 0
-122 11 -159 52 -62 68 -72 156 -25 230 27 42 66 78 101 91 26 10 138 7 167
-4z m-82 -439 l33 0 7 -77 c4 -43 12 -89 17 -102 12 -32 3 -55 -27 -71 -20
-11 -29 -11 -49 -1 -37 20 -46 53 -46 163 0 87 2 99 16 94 9 -3 31 -6 49 -6z"/>
<path d="M419 2611 c-60 -61 -24 -151 61 -151 112 0 150 97 61 157 -47 32 -86
30 -122 -6z m91 -21 c4 0 15 -11 24 -25 12 -19 14 -30 7 -44 -24 -44 -110 -23
-111 27 0 20 40 54 57 48 8 -3 18 -6 23 -6z"/>
<path d="M2010 2551 c0 -5 8 -12 18 -16 15 -6 15 -8 -5 -15 -22 -9 -31 -48
-31 -130 0 -19 -5 -36 -11 -38 -6 -2 -11 -8 -11 -14 0 -6 6 -8 13 -5 9 3 12
-16 12 -74 0 -44 -2 -79 -6 -79 -3 0 -6 -7 -6 -15 0 -8 4 -12 8 -9 10 6 6 -57
-4 -73 -5 -8 -4 -13 2 -13 14 0 14 -27 1 -35 -5 -3 -7 0 -4 8 3 8 -2 17 -12
21 -14 5 -15 4 -5 -8 8 -10 9 -16 1 -21 -5 -3 -10 -12 -10 -18 0 -7 4 -6 10 3
7 11 10 11 10 2 0 -7 5 -10 10 -7 6 3 10 1 10 -4 0 -6 -5 -11 -11 -11 -5 0 -7
-5 -3 -11 3 -6 0 -15 -7 -20 -11 -7 -10 -9 4 -9 9 0 17 -5 17 -11 0 -5 -5 -7
-11 -3 -7 4 -7 -1 1 -16 7 -12 10 -35 8 -52 -4 -24 -3 -27 9 -15 11 10 15 77
18 308 3 162 7 306 10 320 5 21 10 25 30 21 13 -2 29 -10 35 -17 7 -8 11 -127
13 -339 1 -179 5 -326 10 -326 4 0 7 6 8 13 1 11 3 25 14 92 12 74 13 85 5 85
-9 0 -7 26 3 36 11 11 8 26 -3 19 -5 -3 -10 4 -10 16 0 17 4 20 23 16 21 -6
21 -6 -3 13 -21 17 -23 21 -10 30 10 6 11 10 3 10 -16 0 -17 37 -2 42 9 3 9
10 0 26 -9 17 -9 22 1 22 8 0 9 3 3 8 -12 9 -19 86 -7 78 5 -3 9 1 9 9 0 8 -4
15 -9 15 -13 0 -9 54 5 69 10 11 9 12 -2 6 -11 -6 -13 -1 -9 24 2 17 1 31 -4
31 -4 0 -8 7 -8 16 0 8 -4 13 -9 9 -5 -3 -12 -1 -16 5 -3 5 -17 7 -31 4 -16
-4 -26 -1 -30 9 -6 17 -34 31 -34 18z"/>
<path d="M1729 2434 c-6 -8 -18 -14 -25 -14 -8 0 -14 -5 -14 -12 0 -6 -3 -9
-6 -5 -4 3 -13 -1 -21 -9 -8 -8 -19 -11 -25 -8 -6 4 -8 2 -4 -4 3 -6 1 -23 -4
-38 -19 -50 -19 -118 1 -155 10 -19 18 -30 19 -26 0 5 14 -3 31 -17 31 -26 49
-31 102 -27 16 1 35 -3 44 -11 14 -11 15 -10 9 10 -6 17 -4 21 8 16 9 -3 16
-1 16 5 0 6 7 11 15 11 8 0 15 6 15 14 0 8 7 17 16 20 8 3 13 10 9 15 -3 5 -1
12 5 16 6 4 7 11 4 17 -5 8 -1 9 10 5 11 -4 15 -3 10 4 -3 6 -9 28 -11 48 -3
20 -11 40 -19 44 -8 4 -14 15 -14 23 0 20 -25 45 -35 36 -5 -4 -5 -2 -1 5 7
12 -31 40 -47 35 -5 -1 -24 2 -42 7 -26 7 -37 6 -46 -5z m111 -52 c14 -10 35
-34 48 -52 66 -97 -79 -215 -185 -150 -40 24 -54 50 -55 100 -1 102 111 161
192 102z"/>
<path d="M1744 2295 c-9 -23 3 -45 24 -45 29 0 48 26 32 45 -7 8 -21 15 -32
15 -10 0 -21 -7 -24 -15z"/>
<path d="M1696 2022 c-3 -6 -1 -14 5 -17 15 -10 25 3 12 16 -7 7 -13 7 -17 1z"/>
<path d="M2470 1900 c0 -11 5 -20 10 -20 6 0 10 9 10 20 0 11 -4 20 -10 20 -5
0 -10 -9 -10 -20z"/>
<path d="M265 1770 c2 -4 -13 -13 -34 -20 -23 -7 -43 -22 -50 -36 -6 -13 -15
-24 -21 -24 -5 0 -10 -7 -10 -15 0 -8 -4 -15 -10 -15 -5 0 -10 -11 -10 -24 0
-14 -4 -27 -9 -30 -42 -26 18 -163 90 -208 48 -29 116 -36 166 -17 15 6 29 10
30 10 7 -1 67 65 65 72 -1 4 2 7 6 7 14 0 35 72 35 122 0 28 -7 58 -17 73 -9
14 -14 30 -11 35 3 5 -3 11 -12 14 -10 3 -31 17 -46 32 -24 22 -38 26 -97 28
-38 1 -67 -1 -65 -4z m135 -49 c46 -24 80 -83 80 -141 0 -86 -83 -170 -166
-170 -46 1 -112 35 -134 72 -47 77 -31 160 43 223 35 30 48 35 91 35 31 0 65
-7 86 -19z"/>
<path d="M282 1624 c-30 -20 -30 -68 0 -88 35 -25 65 -20 83 14 20 38 19 46
-5 70 -24 24 -48 25 -78 4z"/>
<path d="M2327 1643 c3 -7 -1 -13 -8 -13 -7 0 -9 -3 -6 -7 4 -3 -7 -19 -24
-34 -18 -16 -26 -30 -20 -34 6 -3 11 -11 11 -16 0 -6 -6 -7 -12 -3 -10 6 -10
4 -2 -7 7 -8 15 -28 18 -45 10 -43 53 -82 99 -88 21 -3 35 -1 32 5 -4 5 1 10
9 10 37 3 41 5 38 22 -2 10 3 17 13 17 9 0 13 5 10 10 -3 6 -2 10 3 10 5 0 8
14 6 30 -2 17 1 30 6 30 6 0 10 5 10 11 0 5 -4 7 -10 4 -14 -9 -12 8 3 24 10
11 10 13 0 7 -12 -6 -17 5 -14 26 0 4 -8 10 -19 13 -11 4 -20 13 -20 22 0 11
-8 14 -29 11 -17 -2 -28 -1 -26 3 3 3 -13 6 -34 5 -26 -1 -37 -5 -34 -13z
m101 -38 c46 -13 55 -88 16 -134 -33 -39 -74 -41 -109 -6 -40 39 -29 126 17
145 23 8 31 8 76 -5z"/>
<path d="M2108 1298 c1 -84 5 -164 8 -178 l6 -25 9 22 c4 13 7 39 5 58 -2 28
1 35 12 30 12 -4 13 -3 2 10 -8 10 -11 34 -8 70 3 30 1 55 -4 55 -5 0 -4 8 1
18 6 11 6 24 0 33 -13 21 -11 29 9 23 9 -2 7 1 -5 7 -13 7 -23 16 -23 21 0 4
-3 8 -7 8 -5 0 -7 -69 -5 -152z"/>
<path d="M375 1270 c-3 -5 -15 -10 -26 -10 -10 0 -19 -3 -19 -8 0 -4 -16 -16
-35 -26 -19 -10 -32 -22 -30 -26 8 -13 -19 -60 -35 -61 -9 0 -10 -2 -3 -5 8
-4 9 -14 3 -34 -26 -92 71 -212 178 -219 79 -5 138 28 185 102 22 35 29 60 28
110 -2 56 -4 67 -13 67 -4 0 -8 5 -8 11 0 13 -50 63 -50 51 0 -4 -5 1 -11 11
-5 9 -17 17 -24 17 -8 0 -15 4 -15 9 0 5 -24 8 -54 7 -30 -1 -52 2 -50 6 3 4
1 8 -5 8 -5 0 -13 -4 -16 -10z m121 -49 c112 -51 126 -200 25 -267 -60 -39
-119 -43 -176 -10 -86 51 -106 142 -51 227 44 66 123 86 202 50z"/>
<path d="M382 1134 c-34 -24 -30 -69 9 -90 38 -19 73 -8 91 30 25 56 -45 99
-100 60z"/>
<path d="M2658 678 c22 -22 13 -26 -50 -21 -35 3 -75 4 -90 4 -15 -1 -29 3
-33 9 -9 14 -66 13 -62 -1 1 -6 -4 -14 -12 -17 -8 -2 -11 0 -7 6 3 5 -1 12 -8
15 -8 3 -16 2 -18 -2 -2 -5 -14 -12 -27 -16 -16 -5 -21 -4 -17 4 4 6 0 11 -8
11 -9 0 -16 -6 -17 -12 0 -7 -4 -4 -9 7 -8 18 -9 18 -9 2 -1 -13 -6 -17 -18
-13 -56 16 -70 17 -82 2 -8 -9 -24 -16 -38 -16 -13 0 -26 -6 -29 -14 -3 -8
-15 -17 -27 -20 -28 -7 -89 -65 -84 -80 2 -6 -3 -16 -12 -22 -17 -13 -28 -130
-17 -187 14 -76 93 -159 176 -185 32 -10 505 -18 555 -9 32 6 85 31 85 40 0 4
6 5 13 1 6 -4 9 -4 5 1 -10 11 10 45 27 45 9 0 12 6 8 17 -4 11 -3 14 5 9 7
-4 12 -1 12 8 0 9 5 16 10 16 6 0 9 3 8 8 -1 4 5 21 12 37 7 17 12 34 11 38 0
4 3 17 9 27 7 14 7 20 0 20 -5 0 -10 7 -10 15 0 8 5 15 11 15 7 0 5 10 -5 25
-9 14 -14 25 -10 25 4 0 1 7 -6 15 -7 8 -9 15 -6 15 4 0 0 7 -8 16 -9 8 -13
21 -9 27 3 7 3 9 -2 5 -11 -10 -38 20 -29 33 4 7 3 9 -4 5 -6 -3 -13 -2 -17 4
-10 16 -102 60 -125 60 -13 0 -19 4 -14 11 3 6 0 15 -7 20 -21 13 -35 11 -21
-3z m78 -68 c167 -81 202 -258 76 -384 -71 -72 -65 -71 -371 -68 -249 3 -279
5 -313 23 -75 38 -125 140 -115 231 12 96 57 154 148 194 51 22 66 23 293 24
221 0 243 -2 282 -20z"/>
<path d="M2321 525 c-41 -35 -146 -245 -122 -245 14 0 28 22 49 75 29 76 86
169 104 173 12 2 27 -16 51 -65 19 -37 51 -92 71 -122 44 -65 46 -81 6 -81
-20 0 -35 8 -46 25 -15 23 -23 25 -84 25 -67 0 -69 0 -72 -27 -3 -29 -13 -32
-55 -19 -13 4 -23 3 -23 -2 0 -11 48 -27 69 -23 8 2 23 13 33 26 15 20 25 23
54 18 19 -3 52 -14 72 -24 43 -22 70 -24 95 -5 15 12 17 18 7 35 -6 12 -8 25
-6 30 3 5 -1 12 -10 15 -8 3 -12 10 -9 16 3 5 2 10 -3 10 -9 0 -55 73 -91 141
-7 15 -24 32 -37 38 -19 9 -28 6 -53 -14z"/>
<path d="M2615 532 c-10 -7 -13 -23 -17 -94 -1 -21 -7 -38 -12 -38 -7 0 -7 -3
0 -8 6 -4 14 -33 18 -64 5 -51 4 -58 -11 -59 -10 0 -4 -5 12 -10 54 -18 63
-18 79 0 13 15 15 37 9 143 -6 117 -8 127 -27 132 -28 8 -39 7 -51 -2z m51
-16 c1 0 5 -59 9 -130 l7 -129 -24 6 c-12 4 -26 7 -30 7 -5 0 -8 59 -8 131 l0
130 23 -7 c12 -3 23 -7 23 -8z"/>
<path d="M2331 406 c-12 -18 -21 -36 -21 -40 0 -3 18 -6 40 -6 22 0 40 2 40 5
0 11 -29 75 -34 75 -2 0 -14 -15 -25 -34z"/>
</g>
</svg>
