<?xml version="1.0" standalone="no"?>
<!DOCTYPE svg PUBLIC "-//W3C//DTD SVG 20010904//EN"
 "http://www.w3.org/TR/2001/REC-SVG-20010904/DTD/svg10.dtd">
<svg version="1.0" xmlns="http://www.w3.org/2000/svg"
 width="300.000000pt" height="272.000000pt" viewBox="0 0 300.000000 272.000000"
 preserveAspectRatio="xMidYMid meet">
<metadata>
Created by potrace 1.10, written by Peter Selinger 2001-2011
</metadata>
<g transform="translate(0.000000,272.000000) scale(0.100000,-0.100000)"
fill="#000000" stroke="none">
<path d="M1504 2473 c-42 -45 -102 -153 -129 -232 -36 -107 -41 -202 -17 -340
l20 -113 -66 -62 c-182 -167 -271 -291 -319 -444 -21 -69 -25 -96 -21 -170 3
-75 9 -95 38 -151 54 -100 167 -185 300 -225 69 -21 193 -22 251 -2 24 8 44
14 45 13 11 -13 34 -163 34 -219 0 -123 -31 -193 -105 -236 -35 -20 -50 -22
-130 -19 -53 2 -100 9 -115 17 -25 14 -25 15 20 20 25 3 55 12 68 19 56 31 80
132 45 191 -21 35 -81 70 -122 70 -49 0 -98 -25 -121 -62 -17 -26 -20 -45 -18
-95 7 -115 79 -181 208 -191 133 -9 227 35 274 130 22 44 26 65 26 137 0 73
-14 161 -36 233 -4 12 10 26 49 51 98 63 157 158 157 253 0 116 -43 202 -126
250 -39 23 -63 29 -131 32 -75 4 -84 7 -88 26 -3 11 -16 70 -29 129 l-23 108
82 82 c60 61 91 101 118 157 87 176 86 365 -3 540 -40 80 -78 130 -97 130 -8
0 -25 -12 -39 -27z m56 -48 c7 -9 11 -17 9 -18 -22 -15 -79 -35 -79 -28 0 12
40 61 50 61 4 0 13 -7 20 -15z m33 -76 c95 -43 84 -239 -22 -379 -63 -83 -157
-173 -172 -164 -17 10 -5 242 17 324 32 126 95 230 140 230 7 0 24 -5 37 -11z
m56 -395 c-22 -93 -68 -164 -174 -269 -55 -55 -129 -122 -163 -149 -191 -148
-280 -290 -283 -451 -1 -71 -17 -20 -18 61 -2 110 45 225 149 362 62 83 223
239 285 276 34 21 140 133 184 195 13 17 25 30 28 28 2 -3 -1 -26 -8 -53z
m-209 -491 c12 -60 24 -113 27 -119 2 -6 -14 -16 -35 -22 -87 -26 -172 -122
-187 -213 -13 -73 30 -161 96 -194 37 -20 45 -19 27 3 -56 63 -61 142 -14 213
26 38 89 78 126 79 12 0 25 -45 57 -192 24 -106 45 -203 49 -215 7 -27 -14
-37 -104 -52 -114 -18 -254 28 -322 105 -60 69 -84 137 -84 240 -1 82 2 96 33
158 18 37 58 95 90 127 54 57 200 187 212 188 3 1 16 -47 29 -106z m230 -195
c24 -10 53 -26 63 -36 32 -29 57 -89 57 -138 l0 -47 -31 62 c-52 105 -123 142
-256 136 -82 -4 -121 -22 -172 -81 -41 -46 -40 -17 2 38 20 27 52 53 87 70 48
23 62 26 130 21 41 -3 95 -14 120 -25z m-67 -69 c50 -14 113 -71 128 -117 28
-86 -3 -198 -71 -256 -37 -31 -50 -33 -50 -8 0 22 -78 371 -86 383 -7 12 33
11 79 -2z m-264 -660 c63 -22 81 -110 33 -159 -29 -28 -103 -56 -126 -47 -19
8 -46 71 -46 109 0 43 19 80 50 95 31 16 48 16 89 2z"/>
</g>
</svg>
