<?xml version="1.0" encoding="UTF-8"?>
<svg xmlns="http://www.w3.org/2000/svg" xmlns:xlink="http://www.w3.org/1999/xlink" width="400px" height="363px" viewBox="0 0 225 204" version="1.1">
<g id="surface1">
<path style=" stroke:none;fill-rule:nonzero;fill:rgb(0%,0%,0%);fill-opacity:1;" d="M 112.800781 18.523438 C 109.648438 21.898438 105.148438 30 103.125 35.925781 C 100.425781 43.949219 100.050781 51.074219 101.851562 61.425781 L 103.351562 69.898438 L 98.398438 74.550781 C 84.75 87.074219 78.074219 96.375 74.476562 107.851562 C 72.898438 113.023438 72.601562 115.050781 72.898438 120.601562 C 73.125 126.226562 73.574219 127.726562 75.75 131.925781 C 79.800781 139.425781 88.273438 145.800781 98.25 148.800781 C 103.425781 150.375 112.726562 150.449219 117.074219 148.949219 C 118.875 148.351562 120.375 147.898438 120.449219 147.976562 C 121.273438 148.949219 123 160.199219 123 164.398438 C 123 173.625 120.675781 178.875 115.125 182.101562 C 112.5 183.601562 111.375 183.75 105.375 183.523438 C 101.398438 183.375 97.875 182.851562 96.75 182.25 C 94.875 181.199219 94.875 181.125 98.25 180.75 C 100.125 180.523438 102.375 179.851562 103.351562 179.324219 C 107.550781 177 109.351562 169.425781 106.726562 165 C 105.148438 162.375 100.648438 159.75 97.574219 159.75 C 93.898438 159.75 90.226562 161.625 88.5 164.398438 C 87.226562 166.351562 87 167.773438 87.148438 171.523438 C 87.675781 180.148438 93.074219 185.101562 102.75 185.851562 C 112.726562 186.523438 119.773438 183.226562 123.300781 176.101562 C 124.949219 172.800781 125.25 171.226562 125.25 165.824219 C 125.25 160.351562 124.199219 153.75 122.550781 148.351562 C 122.25 147.449219 123.300781 146.398438 126.226562 144.523438 C 133.574219 139.800781 138 132.675781 138 125.550781 C 138 116.851562 134.773438 110.398438 128.550781 106.800781 C 125.625 105.074219 123.824219 104.625 118.726562 104.398438 C 113.101562 104.101562 112.425781 103.875 112.125 102.449219 C 111.898438 101.625 110.925781 97.199219 109.949219 92.773438 L 108.226562 84.675781 L 114.375 78.523438 C 118.875 73.949219 121.199219 70.949219 123.226562 66.75 C 129.75 53.550781 129.675781 39.375 123 26.25 C 120 20.25 117.148438 16.5 115.726562 16.5 C 115.125 16.5 113.851562 17.398438 112.800781 18.523438 Z M 117 22.125 C 117.523438 22.800781 117.824219 23.398438 117.675781 23.476562 C 116.023438 24.601562 111.75 26.101562 111.75 25.574219 C 111.75 24.675781 114.75 21 115.5 21 C 115.800781 21 116.476562 21.523438 117 22.125 Z M 119.476562 27.824219 C 126.601562 31.050781 125.773438 45.75 117.824219 56.25 C 113.101562 62.476562 106.050781 69.226562 104.925781 68.550781 C 103.648438 67.800781 104.550781 50.398438 106.199219 44.25 C 108.601562 34.800781 113.324219 27 116.699219 27 C 117.226562 27 118.5 27.375 119.476562 27.824219 Z M 123.675781 57.449219 C 122.023438 64.425781 118.574219 69.75 110.625 77.625 C 106.5 81.75 100.949219 86.773438 98.398438 88.800781 C 84.074219 99.898438 77.398438 110.550781 77.175781 122.625 C 77.101562 127.949219 75.898438 124.125 75.824219 118.050781 C 75.675781 109.800781 79.199219 101.175781 87 90.898438 C 91.648438 84.675781 103.726562 72.976562 108.375 70.199219 C 110.925781 68.625 118.875 60.226562 122.175781 55.574219 C 123.148438 54.300781 124.050781 53.324219 124.273438 53.476562 C 124.425781 53.699219 124.199219 55.425781 123.675781 57.449219 Z M 108 94.273438 C 108.898438 98.773438 109.800781 102.75 110.023438 103.199219 C 110.175781 103.648438 108.976562 104.398438 107.398438 104.851562 C 100.875 106.800781 94.5 114 93.375 120.824219 C 92.398438 126.300781 95.625 132.898438 100.574219 135.375 C 103.351562 136.875 103.949219 136.800781 102.601562 135.148438 C 98.398438 130.425781 98.023438 124.5 101.550781 119.175781 C 103.5 116.324219 108.226562 113.324219 111 113.25 C 111.898438 113.25 112.875 116.625 115.273438 127.648438 C 117.074219 135.601562 118.648438 142.875 118.949219 143.773438 C 119.476562 145.800781 117.898438 146.550781 111.148438 147.675781 C 102.601562 149.023438 92.101562 145.574219 87 139.800781 C 82.5 134.625 80.699219 129.523438 80.699219 121.800781 C 80.625 115.648438 80.851562 114.601562 83.175781 109.949219 C 84.523438 107.175781 87.523438 102.824219 89.925781 100.425781 C 93.976562 96.148438 104.925781 86.398438 105.824219 86.324219 C 106.050781 86.25 107.023438 89.851562 108 94.273438 Z M 125.25 108.898438 C 127.050781 109.648438 129.226562 110.851562 129.976562 111.601562 C 132.375 113.773438 134.25 118.273438 134.25 121.949219 L 134.25 125.476562 L 131.925781 120.824219 C 128.023438 112.949219 122.699219 110.175781 112.726562 110.625 C 106.574219 110.925781 103.648438 112.273438 99.824219 116.699219 C 96.75 120.148438 96.824219 117.976562 99.976562 113.851562 C 101.476562 111.824219 103.875 109.875 106.5 108.601562 C 110.101562 106.875 111.148438 106.648438 116.25 107.023438 C 119.324219 107.25 123.375 108.074219 125.25 108.898438 Z M 120.226562 114.074219 C 123.976562 115.125 128.699219 119.398438 129.824219 122.851562 C 131.925781 129.300781 129.601562 137.699219 124.5 142.050781 C 121.726562 144.375 120.75 144.523438 120.75 142.648438 C 120.75 141 114.898438 114.824219 114.300781 113.925781 C 113.773438 113.023438 116.773438 113.101562 120.226562 114.074219 Z M 100.425781 163.574219 C 105.148438 165.226562 106.5 171.824219 102.898438 175.5 C 100.726562 177.601562 95.175781 179.699219 93.449219 179.023438 C 92.023438 178.425781 90 173.699219 90 170.851562 C 90 167.625 91.425781 164.851562 93.75 163.726562 C 96.074219 162.523438 97.351562 162.523438 100.425781 163.574219 Z M 100.425781 163.574219 "/>
</g>
</svg>
